<svg display="none" 
xmlns="http://www.w3.org/2000/svg">
<symbol id="SVGLogo" viewBox="0 0 64 64">
    <g>
        <path d="M32 2C15.432 2 2 15.432 2 32s13.432 30 30 30s30-13.432 30-30S48.568 2 32 2m10.279 44.508h-5.807l-3.504-16.969l-1.023-5.61l-1.023 5.61l-3.504 16.969h-5.631l-8.229-29.016h6.438l3.832 16.615l.834 4.625l.836-4.529l3.277-16.711h6.398l3.447 16.613l.883 4.627l.896-4.447l3.867-16.793h6.174l-8.161 29.016" fill="#000000"/>
    </g>   
</symbol>
<symbol id="HeardBeat" viewBox="0 0 512 512" xmlns="http://www.w3.org/2000/svg">
    <g>
		<path d="M511.979,177.506c-0.011-1.877-0.021-3.736-0.021-5.581c0-75.688-61.575-137.264-137.264-137.264
			c-49.477,0-94.343,26.276-118.694,68.238c-24.351-41.962-69.215-68.238-118.692-68.238C61.62,34.661,0.042,96.238,0.042,171.925
			c0,1.846-0.011,3.706-0.021,5.584c-0.178,32.361-0.401,72.636,51.641,133.97c27.182,32.037,69.963,72.699,114.433,108.77
			c26.288,21.32,72.923,57.089,89.904,57.089c16.983,0,63.616-35.769,89.904-57.089c44.47-36.072,87.249-76.733,114.433-108.77
			C512.379,250.143,512.157,209.868,511.979,177.506z M447.099,300.078c-26.322,31.02-67.926,70.671-111.296,105.924
			c-47.526,38.632-74.203,53.601-79.753,53.934c-5.652-0.333-32.329-15.241-79.855-53.872
			c-43.37-35.252-84.977-74.977-111.296-105.997c-12.418-14.637-21.583-27.048-28.373-40.068h93.674
			c3.194,0,6.129-1.583,7.642-4.394l49.84-92.473l46.901,203.277c0.86,3.732,4.064,6.478,7.885,6.73
			c0.193,0.013,0.383,0.029,0.576,0.029c3.594,0,6.847-2.223,8.123-5.628l45.091-120.239l25.817,51.639
			c1.545,3.088,4.804,4.957,8.22,4.787c3.448-0.18,6.459-2.556,7.671-5.789l23.929-63.979h125.399
			C480.923,253.489,469.087,274.162,447.099,300.078z M491.94,216.6H355.877c-3.617,0-6.857,2.414-8.127,5.803L328.7,273.291
			l-25.817-51.596c-1.547-3.089-4.798-4.937-8.22-4.765c-3.448,0.181-6.459,2.399-7.671,5.632l-41.969,111.925l-45.606-197.621
			c-0.812-3.521-3.721-6.168-7.302-6.649c-3.588-0.482-7.086,1.137-8.796,4.318l-58.304,108.105H28.006
			c-10.822-26.04-10.729-46.258-10.625-65.203c0.011-1.911,0.021-3.718,0.021-5.596c0-66.115,53.79-119.862,119.904-119.862
			c48.526,0,91.972,28.954,110.684,73.731c1.35,3.23,4.507,5.343,8.008,5.343c3.501,0,6.658-2.098,8.008-5.327
			c18.712-44.777,62.158-73.707,110.686-73.707c66.115,0,119.904,53.791,119.904,119.906c0,1.877,0.011,3.598,0.021,5.508
			C494.687,189.567,494.742,203.58,491.94,216.6z"/>
	</g>
</symbol>
</svg>